<?xml version="1.0" encoding="utf-8"?>
<!-- Generator: Adobe Illustrator 23.0.4, SVG Export Plug-In . SVG Version: 6.00 Build 0)  -->
<svg version="1.1" id="圖層_1" xmlns="http://www.w3.org/2000/svg" xmlns:xlink="http://www.w3.org/1999/xlink" x="0px" y="0px"
	 viewBox="0 0 800 90" style="enable-background:new 0 0 800 90;" xml:space="preserve">
<style type="text/css">
	.st0{clip-path:url(#SVGID_2_);}
	.st1{fill:#FFFFFF;}
	.st2{fill:#522F35;}
	.st3{fill:#DC4146;}
</style>
<g>
	<defs>
		<rect id="SVGID_1_" width="800" height="90"/>
	</defs>
	<clipPath id="SVGID_2_">
		<use xlink:href="#SVGID_1_"  style="overflow:visible;"/>
	</clipPath>
	<g class="st0">
		<path class="st1" d="M32,3h736c16,0,29,13,29,29v90c0,16-13,29-29,29H32c-16,0-29-13-29-29V32C3,16,16,3,32,3z"/>
		<path class="st2" d="M768,6c14.4,0,26,11.6,26,26v90c0,14.4-11.6,26-26,26H32c-14.4,0-26-11.6-26-26V32C6,17.6,17.6,6,32,6H768
			 M768,0H32C14.3,0,0,14.3,0,32v90c0,17.7,14.3,32,32,32h736c17.7,0,32-14.3,32-32V32C800,14.3,785.7,0,768,0z"/>
		<path class="st3" d="M3,87V32C3,16,16,3,32,3h736c16,0,29,13,29,29v55H3z"/>
		<path class="st2" d="M768,6c14.4,0,26,11.6,26,26v52H6V32C6,17.6,17.6,6,32,6H768 M768,0H32C14.3,0,0,14.3,0,32v58h800V32
			C800,14.3,785.7,0,768,0z"/>
		<polygon class="st2" points="740.9,0 710,0 800,90 800,59.1 		"/>
	</g>
</g>
</svg>
