<?xml version="1.0" encoding="utf-8"?>
<!-- Generator: Adobe Illustrator 23.0.4, SVG Export Plug-In . SVG Version: 6.00 Build 0)  -->
<svg version="1.1" id="圖層_1" xmlns="http://www.w3.org/2000/svg" xmlns:xlink="http://www.w3.org/1999/xlink" x="0px" y="0px"
	 viewBox="0 0 800 32" style="enable-background:new 0 0 800 32;" xml:space="preserve">
<style type="text/css">
	.st0{clip-path:url(#SVGID_2_);}
	.st1{fill:#FFFFFF;}
	.st2{fill:#522F35;}
</style>
<g>
	<defs>
		<rect id="SVGID_1_" width="800" height="32"/>
	</defs>
	<clipPath id="SVGID_2_">
		<use xlink:href="#SVGID_1_"  style="overflow:visible;"/>
	</clipPath>
	<g class="st0">
		<path class="st1" d="M32-29h736c16,0,29,13,29,29v32c0,16-13,29-29,29H32C16,61,3,48,3,32V0C3-16,16-29,32-29z"/>
		<path class="st2" d="M768-26c14.4,0,26,11.6,26,26v32c0,14.4-11.6,26-26,26H32C17.6,58,6,46.4,6,32V0c0-14.4,11.6-26,26-26H768
			 M768-32H32C14.3-32,0-17.7,0,0v32c0,17.7,14.3,32,32,32h736c17.7,0,32-14.3,32-32V0C800-17.7,785.7-32,768-32z"/>
	</g>
</g>
</svg>
