<?xml version="1.0" encoding="utf-8"?>
<!-- Generator: Adobe Illustrator 23.0.4, SVG Export Plug-In . SVG Version: 6.00 Build 0)  -->
<svg version="1.1" id="圖層_1" xmlns="http://www.w3.org/2000/svg" xmlns:xlink="http://www.w3.org/1999/xlink" x="0px" y="0px"
	 viewBox="0 0 760 28" style="enable-background:new 0 0 760 28;" xml:space="preserve">
<style type="text/css">
	.st0{clip-path:url(#SVGID_2_);}
	.st1{fill:#522F35;}
	.st2{fill:#FFFFFF;}
</style>
<g>
	<defs>
		<rect id="SVGID_1_" y="0" width="760" height="28"/>
	</defs>
	<clipPath id="SVGID_2_">
		<use xlink:href="#SVGID_1_"  style="overflow:visible;"/>
	</clipPath>
	<g class="st0">
		<path class="st1" d="M1-0.2v15.7C1,21.9,6.1,27,12.5,27h735c6.4,0,11.5-5.1,11.5-11.5V-0.2H1z"/>
		<path class="st1" d="M758-0.2v15.7c0,5.8-4.7,10.5-10.5,10.5h-735C6.7,26,2,21.3,2,15.5V-0.2H0v15.7C0,22.4,5.6,28,12.5,28h735
			c6.9,0,12.5-5.6,12.5-12.5V-0.2H758z"/>
		<path class="st2" d="M2-0.2v0.7C2,6.3,6.7,11,12.5,11h735c5.8,0,10.5-4.7,10.5-10.5v-0.7C758-0.2,2-0.2,2-0.2z"/>
		<path class="st1" d="M756-0.2v0.7c0,4.7-3.8,8.5-8.5,8.5h-735C7.8,9,4,5.2,4,0.5v-0.7H0v0.7C0,7.4,5.6,13,12.5,13h735
			c6.9,0,12.5-5.6,12.5-12.5v-0.7C760-0.2,756-0.2,756-0.2z"/>
	</g>
</g>
</svg>
