<svg xmlns="http://www.w3.org/2000/svg" viewBox="0 0 56 61"><title>button_icon_3_1</title><circle cx="28" cy="33" r="28" fill="#ff829a"/><circle cx="28" cy="28" r="28" fill="#ffa7b8"/><path d="M37.47,45.52H19.1a3,3,0,0,1-3-3V12a3,3,0,0,1,3-3H32.48l8,8V42.52A3,3,0,0,1,37.47,45.52Z" fill="#fff"/><path d="M34,18a2.52,2.52,0,0,1-2.52-2.53V9a1,1,0,0,1,.61-.92A.91.91,0,0,1,32.48,8a1,1,0,0,1,.7.29l8,8a1,1,0,0,1,.22,1.09,1,1,0,0,1-.93.62Z" fill="#fff"/><path d="M32.48,9l8,8H34a1.52,1.52,0,0,1-1.52-1.53V9m0-2a2.07,2.07,0,0,0-.77.15A2,2,0,0,0,30.48,9v6.47A3.53,3.53,0,0,0,34,19h6.48a2,2,0,0,0,1.41-3.42l-8-8A2,2,0,0,0,32.48,7Z" fill="#ffa7b8"/><line x1="20.9" y1="14.03" x2="25.62" y2="14.03" fill="#fff" stroke="#ffa7b8" stroke-linecap="round" stroke-linejoin="round" stroke-width="2"/><line x1="20.9" y1="22.64" x2="35.67" y2="22.64" fill="#fff" stroke="#ffa7b8" stroke-linecap="round" stroke-linejoin="round" stroke-width="2"/><line x1="20.9" y1="27.66" x2="35.67" y2="27.66" fill="#fff" stroke="#ffa7b8" stroke-linecap="round" stroke-linejoin="round" stroke-width="2"/><line x1="20.9" y1="32.69" x2="35.67" y2="32.69" fill="#fff" stroke="#ffa7b8" stroke-linecap="round" stroke-linejoin="round" stroke-width="2"/><line x1="20.9" y1="37.72" x2="23.59" y2="37.72" fill="#fff" stroke="#ffa7b8" stroke-linecap="round" stroke-linejoin="round" stroke-width="2"/><line x1="32.99" y1="37.72" x2="35.67" y2="37.72" fill="#fff" stroke="#ffa7b8" stroke-linecap="round" stroke-linejoin="round" stroke-width="2"/></svg>