<svg xmlns="http://www.w3.org/2000/svg" viewBox="0 0 56 58"><title>button_icon_line_2</title><circle cx="28" cy="30" r="28" fill="#ff829a"/><circle cx="28" cy="28" r="28" fill="#ffa7b8"/><path d="M16.16,33.34a1.15,1.15,0,0,1,.75.28,1.17,1.17,0,0,1,.33.93,1.14,1.14,0,0,1-.35.94,1.2,1.2,0,0,1-.73.27H10.83a1.38,1.38,0,0,1-1.08-.44,1.51,1.51,0,0,1-.4-1.06V22.07a.9.9,0,0,1,.4-.79,1.58,1.58,0,0,1,1-.28,1.58,1.58,0,0,1,1,.28.93.93,0,0,1,.37.79V33.34Z" fill="#fff"/><path d="M21.42,34.63a1.35,1.35,0,0,1-.33,1A1.38,1.38,0,0,1,20,36a1.34,1.34,0,0,1-1-.34,1.42,1.42,0,0,1-.3-1V22.34A1.19,1.19,0,0,1,20,21a1.61,1.61,0,0,1,1,.29,1.27,1.27,0,0,1,.36,1Z" fill="#fff"/><path d="M26.45,34.88a1.06,1.06,0,0,1-.32.75,1.34,1.34,0,0,1-1,.34A1.33,1.33,0,0,1,24,35.61a1.13,1.13,0,0,1-.31-.73V22a1.19,1.19,0,0,1,.21-.68q.21-.3,1-.3a.92.92,0,0,1,.68.25,6.54,6.54,0,0,1,.45.5l6.59,8.87V22.09a1.09,1.09,0,0,1,.32-.73A1.31,1.31,0,0,1,34,21a1.36,1.36,0,0,1,1,.33,1.1,1.1,0,0,1,.32.76V35a1.07,1.07,0,0,1-.21.64c-.14.2-.45.3-.94.3a1.05,1.05,0,0,1-.7-.25,4.25,4.25,0,0,1-.47-.5l-6.57-8.58Z" fill="#fff"/><path d="M40.35,33.42h5a1.93,1.93,0,0,1,1.13.25,1.45,1.45,0,0,1,0,1.84,2,2,0,0,1-1.13.25H39a1.71,1.71,0,0,1-1-.24,1,1,0,0,1-.36-.91V22.36a1.08,1.08,0,0,1,.34-.9,1.62,1.62,0,0,1,1-.25h6.45a1.39,1.39,0,0,1,.91.26,1.2,1.2,0,0,1,.32.91,1.07,1.07,0,0,1-.31.91,1.52,1.52,0,0,1-.94.26h-5v3.53h4.84a1.33,1.33,0,0,1,1,.28,1.17,1.17,0,0,1,.29.9,1.12,1.12,0,0,1-.29.89,1.38,1.38,0,0,1-1,.26H40.35Z" fill="#fff"/></svg>