<svg xmlns="http://www.w3.org/2000/svg" viewBox="0 0 100 92.19"><defs><style>.a{fill:#fbebe2;}.b{fill:#f2d2c2;opacity:0.5;}.c{fill:#dc4146;}.d{fill:#522f35;}.e{fill:#fff;}</style></defs><title>logo_icon</title><path class="a" d="M95.24,49.72A58.12,58.12,0,0,0,88,36.11c-2.76-3.58-3.79-5.37-6.83-8.23C72.41,19.67,61.3,17.4,50,17.23c-11.3.17-22.41,2.44-31.14,10.65-3,2.86-4.07,4.65-6.83,8.23A58.12,58.12,0,0,0,4.76,49.72C2.94,54.45,1.34,58.2,1.88,66.17A23.37,23.37,0,0,0,16.28,86.3c4.43,1.83,17.17,4.12,33.72,4.12s29.29-2.29,33.72-4.12a23.37,23.37,0,0,0,14.4-20.13C98.66,58.2,97.06,54.45,95.24,49.72Z"/><path class="b" d="M50,80.45c-18.47,0-22.71,1.36-22.71,2.36s9.54,2.3,22.71,2.37,22.71-1.37,22.71-2.37S68.47,80.45,50,80.45Z"/><path class="c" d="M20.05,86.29c3.28-12.06-12.26-18.75-16.19-14,0,0-.34,4.62,5.05,9.23A19.66,19.66,0,0,0,20.05,86.29Z"/><path class="c" d="M80,86.29c-3.28-12.06,12.26-18.75,16.19-14,0,0,.34,4.62-5,9.23A19.66,19.66,0,0,1,80,86.29Z"/><path class="d" d="M50,92.19c-15.83,0-29.29-2.14-34.4-4.25-2.41-1-14.46-6.72-15.49-21.65-.55-8,1-12,2.77-16.63l.23-.58a58.55,58.55,0,0,1,7.52-14c.68-.88,1.26-1.66,1.78-2.36a39.61,39.61,0,0,1,5.23-6.08C25.49,19.21,35.76,15.67,50,15.45c14.27.22,24.54,3.76,32.39,11.14a39.57,39.57,0,0,1,5.23,6.07c.52.71,1.1,1.48,1.78,2.37a58.74,58.74,0,0,1,7.52,14l.23.59c1.78,4.61,3.32,8.59,2.77,16.62-1,14.93-13.08,20.65-15.49,21.65C79.29,90.05,65.83,92.19,50,92.19ZM50,19c-13.21.2-22.73,3.44-29.9,10.17a36.16,36.16,0,0,0-4.81,5.61c-.54.72-1.13,1.51-1.82,2.41a55.74,55.74,0,0,0-7,13.17l-.23.58c-1.69,4.39-3,7.86-2.54,15.11C4.53,78.89,14.89,83.8,17,84.66c3.73,1.54,16,4,33.05,4s29.32-2.44,33.05-4c2.06-.86,12.42-5.77,13.3-18.61.49-7.25-.85-10.71-2.54-15.11l-.23-.58h0a55.74,55.74,0,0,0-7-13.17c-.7-.9-1.28-1.69-1.82-2.41a36.71,36.71,0,0,0-4.81-5.61C72.76,22.44,63.24,19.2,50,19Z"/><path class="d" d="M20.05,88.06a1.89,1.89,0,0,1-.47-.06,1.78,1.78,0,0,1-1.25-2.18c1.59-5.83-1.94-10-5.78-12-3-1.56-6.22-1.73-7.32-.39A1.77,1.77,0,0,1,2.5,71.16c2.23-2.71,7-2.91,11.68-.5,4.83,2.5,9.72,8.22,7.58,16.09A1.78,1.78,0,0,1,20.05,88.06Z"/><path class="d" d="M80,88.06a1.78,1.78,0,0,1-1.71-1.31C76.1,78.88,81,73.16,85.82,70.66c4.65-2.41,9.45-2.2,11.68.5a1.77,1.77,0,0,1-2.73,2.26c-1.1-1.34-4.32-1.17-7.32.39-3.84,2-7.37,6.18-5.79,12A1.77,1.77,0,0,1,80.42,88,1.89,1.89,0,0,1,80,88.06Z"/><path class="d" d="M36,46.88l.24.06c1.15.32,3.84,1.66,5,1.2,1.93-.77-1.07-2.76-2.17-3-2.47-.58-4.92-1.26-7.43-1.65-.7-.11-2.33-.66-2.61.33-.22.77,1.24,1.5,1.77,1.64Z"/><path class="d" d="M70.11,42.1c-.81-.28-1.89.25-2.67.49-2.56.8-5.06,1.8-7.62,2.63-.64.21-1.4.54-1.5,1.21s.66,1.29,1.37,1.28c1.08,0,2.56-.78,3.66-1,2-.49,4-1.06,6.07-1.59,1.08-.28,2.13-1.37,1.34-2.48A1.29,1.29,0,0,0,70.11,42.1Z"/><path class="d" d="M51.22,55.39c-.38-.76-.57-2-1.55-2s-1.17,1.25-1.55,2c-1,.15-2.68,1.21-1.55,2a4.82,4.82,0,0,0,3.1.79,4.84,4.84,0,0,0,3.1-.79C53.9,56.6,52.24,55.54,51.22,55.39Z"/><path class="d" d="M39.28,54.53a3.54,3.54,0,0,0-1-1.36,4,4,0,0,0-4-.71,3.43,3.43,0,0,0-2.12,3.38c.41,4.19,7.84,3.27,7.28-.72A3,3,0,0,0,39.28,54.53Z"/><path class="d" d="M63.6,51.63c-3.83.28-4.34,4.8-1,6.24,2.41.36,5.41-.56,4.61-3.69A3.58,3.58,0,0,0,63.6,51.63Z"/><path class="d" d="M56.94,60.57A23,23,0,0,0,53.36,62c-.84.43-2.35,1.9-3.24,2-.39,0-1.43-1-1.75-1.2a20,20,0,0,0-1.86-1,26,26,0,0,0-4.2-1.62A1,1,0,0,0,41.79,62,22.87,22.87,0,0,1,47,64.21c.91.54,2,1.8,3.14,1.83.94,0,1.77-.9,2.48-1.36a19.92,19.92,0,0,1,4.83-2.21C58.67,62.1,58.16,60.19,56.94,60.57Z"/><path class="d" d="M88.43,30.71c1.24.26,4.24-1.6,3.37-5.92-.9-4.49-3.42-5-5.9-4.47,2.22-3.37,1.86-7.22-2.3-10.7s-9.69-1.88-10.78-.54a6.76,6.76,0,0,0-3.68-5.91,8.38,8.38,0,0,0-8.63.05,7.85,7.85,0,0,0-2.11,2C57.53,1.53,53.6,0,50,0s-7.53,1.53-8.4,5.21a7.85,7.85,0,0,0-2.11-2,8.38,8.38,0,0,0-8.63-.05,6.76,6.76,0,0,0-3.68,5.91c-1.09-1.34-6.62-2.94-10.78.54S11.88,17,14.1,20.32c-2.48-.55-5,0-5.9,4.47-.87,4.32,2.13,6.18,3.37,5.92-4.5,2.85-5.28,8.69-4.38,11.16,2.63,7.24,13.26,2,13.68-2.32.29,3.44,4.71,3.35,8.34,1.53,2.47-1.23,4.91-3.63,5-5.8C34.57,37,37.1,41.57,50,41.57S65.43,37,65.81,35.28c.07,2.17,2.51,4.57,5,5.8,3.63,1.82,8,1.91,8.34-1.53.42,4.34,11.05,9.56,13.68,2.32C93.71,39.4,92.93,33.56,88.43,30.71Z"/><path class="e" d="M71.62,23.28A1.2,1.2,0,0,1,70.9,23c-.08-.07-7.46-5.56-20.9-5.56S29.17,23,29.1,23a1.18,1.18,0,1,1-1.44-1.88c.32-.25,8-6.05,22.34-6.05s22,5.8,22.34,6.05a1.18,1.18,0,0,1,.22,1.66A1.21,1.21,0,0,1,71.62,23.28Z"/></svg>