<svg xmlns="http://www.w3.org/2000/svg" xmlns:xlink="http://www.w3.org/1999/xlink" viewBox="0 0 844 32"><defs><clipPath id="a"><rect width="844" height="32" fill="none"/></clipPath></defs><title>box_bg_xl</title><g clip-path="url(#a)"><rect x="3" y="-29" width="838" height="90" rx="29" fill="#fff"/><path d="M812-26A26,26,0,0,1,838,0V32a26,26,0,0,1-26,26H32A26,26,0,0,1,6,32V0A26,26,0,0,1,32-26H812m0-6H32A32,32,0,0,0,0,0V32A32,32,0,0,0,32,64H812a32,32,0,0,0,32-32V0a32,32,0,0,0-32-32Z" fill="#522f35"/></g></svg>