<svg xmlns="http://www.w3.org/2000/svg" viewBox="0 0 238 30"><title>box_3x_txt_bg</title><rect width="238" height="30" rx="12.5" fill="#522f35"/><path d="M225.5,2A10.51,10.51,0,0,1,236,12.5v5A10.51,10.51,0,0,1,225.5,28H12.5A10.51,10.51,0,0,1,2,17.5v-5A10.51,10.51,0,0,1,12.5,2h213m0-2H12.5A12.5,12.5,0,0,0,0,12.5v5A12.5,12.5,0,0,0,12.5,30h213A12.5,12.5,0,0,0,238,17.5v-5A12.5,12.5,0,0,0,225.5,0Z" fill="#522f35"/><path d="M12.5,24a11.5,11.5,0,0,1,0-23h213a11.5,11.5,0,0,1,0,23Z" fill="#75595d"/><path d="M225.5,2a10.5,10.5,0,0,1,0,21H12.5a10.5,10.5,0,0,1,0-21h213m0-2H12.5a12.5,12.5,0,0,0,0,25h213a12.5,12.5,0,0,0,0-25Z" fill="#522f35"/></svg>