<svg xmlns="http://www.w3.org/2000/svg" xmlns:xlink="http://www.w3.org/1999/xlink" viewBox="0 0 844 32"><defs><clipPath id="a"><rect width="844" height="32" fill="none"/></clipPath></defs><title>box_bg_xl</title><g clip-path="url(#a)"><rect x="3" y="3" width="838" height="90" rx="29" fill="#fff"/><path d="M812,6a26,26,0,0,1,26,26V64a26,26,0,0,1-26,26H32A26,26,0,0,1,6,64V32A26,26,0,0,1,32,6H812m0-6H32A32,32,0,0,0,0,32V64A32,32,0,0,0,32,96H812a32,32,0,0,0,32-32V32A32,32,0,0,0,812,0Z" fill="#522f35"/></g></svg>